<svg width="304" height="387" viewBox="0 0 504 287" fill="none" xmlns="http://www.w3.org/2000/svg">
<path fill-rule="evenodd" clip-rule="evenodd" d="M30.3325 27.751H33.6663C34.1263 27.751 34.5 27.3962 34.5 26.9606V23.7916C34.5 23.3548 34.1263 23 33.6663 23H30.3325C29.8725 23 29.5 23.3548 29.5 23.7916V26.9606C29.5 27.3962 29.8725 27.751 30.3325 27.751Z" fill="#3A95FF"/>
<path fill-rule="evenodd" clip-rule="evenodd" d="M26.1662 36.3223H22.8325C22.3725 36.3223 22 36.6722 22 37.1018V40.2201C22 40.6485 22.3725 40.9997 22.8325 40.9997H26.1662C26.6262 40.9997 27 40.6497 27 40.2201V37.1018C27 36.6722 26.6262 36.3223 26.1662 36.3223Z" fill="#3A95FF"/>
<path fill-rule="evenodd" clip-rule="evenodd" d="M33.6663 36.3223H30.3325C29.8725 36.3223 29.5 36.6722 29.5 37.1018V40.2201C29.5 40.6485 29.8725 40.9997 30.3325 40.9997H33.6663C34.1263 40.9997 34.5 40.6497 34.5 40.2201V37.1018C34.5 36.6722 34.1263 36.3223 33.6663 36.3223Z" fill="#3A95FF"/>
<path fill-rule="evenodd" clip-rule="evenodd" d="M41.1663 36.3223H37.8325C37.3725 36.3223 37 36.6722 37 37.1018V40.2201C37 40.6485 37.3725 40.9997 37.8325 40.9997H41.1663C41.6263 40.9997 42 40.6497 42 40.2201V37.1018C42 36.6722 41.6263 36.3223 41.1663 36.3223Z" fill="#3A95FF"/>
<path fill-rule="evenodd" clip-rule="evenodd" d="M25.6895 33.759H30.787V34.9416H33.2095V33.759H38.3008V34.9416H40.722V31.4336H33.2095V29.002H30.787V31.4336H23.3008V34.9416H25.6895V33.759Z" fill="#3A95FF"/>
<path fill-rule="evenodd" clip-rule="evenodd" d="M30.3325 110.751H33.6663C34.1263 110.751 34.5 110.396 34.5 109.961V106.792C34.5 106.355 34.1263 106 33.6663 106H30.3325C29.8725 106 29.5 106.355 29.5 106.792V109.961C29.5 110.396 29.8725 110.751 30.3325 110.751Z" fill="#747987"/>
<path fill-rule="evenodd" clip-rule="evenodd" d="M26.1662 119.322H22.8325C22.3725 119.322 22 119.672 22 120.102V123.22C22 123.649 22.3725 124 22.8325 124H26.1662C26.6262 124 27 123.65 27 123.22V120.102C27 119.672 26.6262 119.322 26.1662 119.322Z" fill="#747987"/>
<path fill-rule="evenodd" clip-rule="evenodd" d="M33.6663 119.322H30.3325C29.8725 119.322 29.5 119.672 29.5 120.102V123.22C29.5 123.649 29.8725 124 30.3325 124H33.6663C34.1263 124 34.5 123.65 34.5 123.22V120.102C34.5 119.672 34.1263 119.322 33.6663 119.322Z" fill="#747987"/>
<path fill-rule="evenodd" clip-rule="evenodd" d="M41.1663 119.322H37.8325C37.3725 119.322 37 119.672 37 120.102V123.22C37 123.649 37.3725 124 37.8325 124H41.1663C41.6263 124 42 123.65 42 123.22V120.102C42 119.672 41.6263 119.322 41.1663 119.322Z" fill="#747987"/>
<path fill-rule="evenodd" clip-rule="evenodd" d="M25.6895 116.759H30.787V117.942H33.2095V116.759H38.3008V117.942H40.722V114.434H33.2095V112.002H30.787V114.434H23.3008V117.942H25.6895V116.759Z" fill="#747987"/>
<path d="M73 22C67.4777 22 63 26.477 63 32C63 37.523 67.4773 42 73 42C78.5231 42 83 37.523 83 32C83 26.477 78.5231 22 73 22ZM73 24.9901C74.8273 24.9901 76.308 26.4713 76.308 28.2978C76.308 30.1248 74.8273 31.6055 73 31.6055C71.1736 31.6055 69.6929 30.1248 69.6929 28.2978C69.6929 26.4713 71.1736 24.9901 73 24.9901ZM72.9978 39.3855C71.1753 39.3855 69.5062 38.7217 68.2187 37.6231C67.9051 37.3556 67.7242 36.9633 67.7242 36.5517C67.7242 34.6993 69.2233 33.2168 71.0761 33.2168H74.9248C76.778 33.2168 78.2715 34.6993 78.2715 36.5517C78.2715 36.9638 78.0914 37.3552 77.7773 37.6227C76.4903 38.7217 74.8207 39.3855 72.9978 39.3855Z" fill="#3A95FF"/>
<path d="M73 105C67.4777 105 63 109.477 63 115C63 120.523 67.4773 125 73 125C78.5231 125 83 120.523 83 115C83 109.477 78.5231 105 73 105ZM73 107.99C74.8273 107.99 76.308 109.471 76.308 111.298C76.308 113.125 74.8273 114.606 73 114.606C71.1736 114.606 69.6929 113.125 69.6929 111.298C69.6929 109.471 71.1736 107.99 73 107.99ZM72.9978 122.385C71.1753 122.385 69.5062 121.722 68.2187 120.623C67.9051 120.356 67.7242 119.963 67.7242 119.552C67.7242 117.699 69.2233 116.217 71.0761 116.217H74.9248C76.778 116.217 78.2715 117.699 78.2715 119.552C78.2715 119.964 78.0914 120.355 77.7773 120.623C76.4903 121.722 74.8207 122.385 72.9978 122.385Z" fill="#747987"/>
<path d="M159.356 26.5L152.07 32.0714L158.57 38.5714C160.07 36.7857 160.999 34.5 160.999 32C160.999 29.9286 160.356 28.0714 159.356 26.5Z" fill="#3A95FF"/>
<path d="M151.715 30.5714L158.429 25.3571C156.715 23.5 154.358 22.2143 151.715 22V30.5714Z" fill="#3A95FF"/>
<path d="M150.5 32.4999C150.429 32.4284 150.429 32.4284 150.5 32.4999C150.429 32.4284 150.429 32.357 150.429 32.357C150.429 32.2856 150.357 32.2856 150.357 32.2141C150.357 32.1427 150.357 32.1427 150.357 32.0713V31.9999V22.0713C145.071 22.4284 141 26.7141 141 31.9999C141 37.4999 145.5 41.9999 151 41.9999C153.5 41.9999 155.786 41.0713 157.571 39.5713L150.5 32.4999Z" fill="#3A95FF"/>
<path d="M159.356 109.5L152.07 115.071L158.57 121.571C160.07 119.786 160.999 117.5 160.999 115C160.999 112.929 160.356 111.071 159.356 109.5Z" fill="#747987"/>
<path d="M151.715 113.571L158.429 108.357C156.715 106.5 154.358 105.214 151.715 105V113.571Z" fill="#747987"/>
<path d="M150.5 115.5C150.429 115.428 150.429 115.428 150.5 115.5C150.429 115.428 150.429 115.357 150.429 115.357C150.429 115.286 150.357 115.286 150.357 115.214C150.357 115.143 150.357 115.143 150.357 115.071V115V105.071C145.071 105.428 141 109.714 141 115C141 120.5 145.5 125 151 125C153.5 125 155.786 124.071 157.571 122.571L150.5 115.5Z" fill="#747987"/>
<path d="M199.953 24H184.047C183.217 24 182 24.744 182 26.133V37.867C182 39.0434 182.918 40 184.047 40H199.953C201.082 40 202 39.0434 202 37.867V26.133C202 25.3518 201.493 24 199.953 24ZM197.744 26.3701L192 31.2485L186.256 26.3701H197.744ZM184.275 37.6299V28.0416L191.211 33.9336C191.441 34.1284 191.72 34.226 192 34.226C192.279 34.226 192.559 34.1286 192.789 33.9336L199.725 28.0416V37.6299H184.275Z" fill="#3A95FF"/>
<path d="M201.953 107H186.047C185.217 107 184 107.744 184 109.133V120.867C184 122.043 184.918 123 186.047 123H201.953C203.082 123 204 122.043 204 120.867V109.133C204 108.352 203.493 107 201.953 107ZM199.744 109.37L194 114.249L188.256 109.37H199.744ZM186.275 120.63V111.042L193.211 116.934C193.441 117.128 193.72 117.226 194 117.226C194.279 117.226 194.559 117.129 194.789 116.934L201.725 111.042V120.63H186.275Z" fill="#747987"/>
<path d="M223.845 33.5108L225.156 33.519C225.352 34.5276 225.74 35.5075 226.328 36.3977L225.397 37.3205C225.062 37.6513 225.062 38.1862 225.389 38.521L226.393 39.5377C226.724 39.8726 227.259 39.8726 227.594 39.5459L228.525 38.6231C229.407 39.2192 230.383 39.6235 231.391 39.8277L231.383 41.1384C231.379 41.608 231.759 41.9877 232.228 41.9918L233.657 42C234.127 42.004 234.507 41.6243 234.511 41.1547L234.519 39.844C235.528 39.648 236.508 39.2601 237.398 38.6721L238.321 39.6031C238.651 39.9379 239.186 39.9379 239.521 39.6112L240.538 38.6068C240.873 38.276 240.873 37.7411 240.546 37.4063L239.623 36.4753C240.219 35.5933 240.623 34.6174 240.828 33.6088L242.138 33.617C242.608 33.6211 242.988 33.2413 242.992 32.7717L243 31.3426C243.004 30.873 242.624 30.4933 242.155 30.4892L240.844 30.481C240.648 29.4724 240.26 28.4925 239.672 27.6023L240.603 26.6795C240.938 26.3487 240.938 25.8138 240.611 25.479L239.607 24.4623C239.276 24.1274 238.741 24.1274 238.406 24.4541L237.475 25.3769C236.593 24.7808 235.617 24.3765 234.609 24.1723L234.617 22.8616C234.621 22.392 234.241 22.0123 233.772 22.0082L232.343 22C231.873 21.9959 231.493 22.3757 231.489 22.8453L231.477 24.156C230.464 24.352 229.484 24.7399 228.598 25.3279L227.675 24.3969C227.345 24.0621 226.81 24.0621 226.475 24.3888L225.462 25.3932C225.127 25.724 225.127 26.2589 225.454 26.5937L226.377 27.5247C225.781 28.4067 225.377 29.3826 225.172 30.3912L223.862 30.383C223.392 30.3789 223.012 30.7587 223.008 31.2283L223 32.6574C222.996 33.1229 223.376 33.5067 223.845 33.5108ZM230.321 29.2928C231.816 27.8146 234.221 27.8269 235.699 29.3214C237.177 30.8158 237.165 33.2209 235.67 34.6991C234.176 36.1772 231.771 36.165 230.293 34.6705C228.815 33.176 228.827 30.7709 230.321 29.2928Z" fill="#3A95FF"/>
<path d="M223.845 116.511L225.156 116.519C225.352 117.528 225.74 118.508 226.328 119.398L225.397 120.321C225.062 120.651 225.062 121.186 225.389 121.521L226.393 122.538C226.724 122.873 227.259 122.873 227.594 122.546L228.525 121.623C229.407 122.219 230.383 122.623 231.391 122.828L231.383 124.138C231.379 124.608 231.759 124.988 232.228 124.992L233.657 125C234.127 125.004 234.507 124.624 234.511 124.155L234.519 122.844C235.528 122.648 236.508 122.26 237.398 121.672L238.321 122.603C238.651 122.938 239.186 122.938 239.521 122.611L240.538 121.607C240.873 121.276 240.873 120.741 240.546 120.406L239.623 119.475C240.219 118.593 240.623 117.617 240.828 116.609L242.138 116.617C242.608 116.621 242.988 116.241 242.992 115.772L243 114.343C243.004 113.873 242.624 113.493 242.155 113.489L240.844 113.481C240.648 112.472 240.26 111.492 239.672 110.602L240.603 109.679C240.938 109.349 240.938 108.814 240.611 108.479L239.607 107.462C239.276 107.127 238.741 107.127 238.406 107.454L237.475 108.377C236.593 107.781 235.617 107.377 234.609 107.172L234.617 105.862C234.621 105.392 234.241 105.012 233.772 105.008L232.343 105C231.873 104.996 231.493 105.376 231.489 105.845L231.477 107.156C230.464 107.352 229.484 107.74 228.598 108.328L227.675 107.397C227.345 107.062 226.81 107.062 226.475 107.389L225.462 108.393C225.127 108.724 225.127 109.259 225.454 109.594L226.377 110.525C225.781 111.407 225.377 112.383 225.172 113.391L223.862 113.383C223.392 113.379 223.012 113.759 223.008 114.228L223 115.657C222.996 116.123 223.376 116.507 223.845 116.511ZM230.321 112.293C231.816 110.815 234.221 110.827 235.699 112.321C237.177 113.816 237.165 116.221 235.67 117.699C234.176 119.177 231.771 119.165 230.293 117.67C228.815 116.176 228.827 113.771 230.321 112.293Z" fill="#747987"/>
<path d="M283.999 26.4898C283.999 26.3836 283.958 26.2793 283.88 26.2012L279.799 22.1196C279.721 22.0415 279.616 22.0011 279.51 22.001V22H268.49C268.264 22 268.082 22.1827 268.082 22.4082V24.449H264.408C264.183 24.449 264 24.6318 264 24.8571V39.3469C264 39.5723 264.183 39.7551 264.408 39.7551H268.082V41.5918C268.082 41.8172 268.264 42 268.49 42H283.592C283.817 42 284 41.8172 284 41.5918V26.4898H283.999ZM279.918 23.3936L282.606 26.0816H279.918V23.3936ZM264.816 25.2653H271.857V28.0204C271.857 28.2458 272.04 28.4286 272.265 28.4286H275.02V38.9388H264.816V25.2653ZM272.673 25.8426L274.443 27.6122H272.673V25.8426ZM268.898 41.1837V39.7551H275.429C275.654 39.7551 275.837 39.5723 275.837 39.3469V28.0204C275.837 27.9122 275.794 27.8084 275.717 27.7318L272.554 24.5685C272.477 24.492 272.374 24.449 272.265 24.449H268.898V22.8163H279.102V26.4898C279.102 26.7152 279.285 26.898 279.51 26.898H283.184V41.1837H268.898Z" fill="#3A95FF"/>
<path d="M281.958 28.5303H276.652V29.3466H281.958V28.5303Z" fill="#3A95FF"/>
<path d="M281.958 30.9795H276.652V31.7958H281.958V30.9795Z" fill="#3A95FF"/>
<path d="M281.958 33.4287H276.652V34.245H281.958V33.4287Z" fill="#3A95FF"/>
<path d="M281.958 35.8779H276.652V36.6943H281.958V35.8779Z" fill="#3A95FF"/>
<path d="M281.958 38.3262H276.652V39.1425H281.958V38.3262Z" fill="#3A95FF"/>
<path d="M268.489 26.2861H265.836V27.1025H268.489V26.2861Z" fill="#3A95FF"/>
<path d="M268.489 27.918H265.836V28.7343H268.489V27.918Z" fill="#3A95FF"/>
<path d="M273.999 30.3672H265.836V31.1835H273.999V30.3672Z" fill="#3A95FF"/>
<path d="M273.999 32.4082H265.836V33.2245H273.999V32.4082Z" fill="#3A95FF"/>
<path d="M273.999 34.4492H265.836V35.2655H273.999V34.4492Z" fill="#3A95FF"/>
<path d="M273.999 36.4902H265.836V37.3066H273.999V36.4902Z" fill="#3A95FF"/>
<path d="M283.999 109.49C283.999 109.384 283.958 109.279 283.88 109.201L279.799 105.12C279.721 105.042 279.616 105.001 279.51 105.001V105H268.49C268.264 105 268.082 105.183 268.082 105.408V107.449H264.408C264.183 107.449 264 107.632 264 107.857V122.347C264 122.572 264.183 122.755 264.408 122.755H268.082V124.592C268.082 124.817 268.264 125 268.49 125H283.592C283.817 125 284 124.817 284 124.592V109.49H283.999ZM279.918 106.394L282.606 109.082H279.918V106.394ZM264.816 108.265H271.857V111.02C271.857 111.246 272.04 111.429 272.265 111.429H275.02V121.939H264.816V108.265ZM272.673 108.843L274.443 110.612H272.673V108.843ZM268.898 124.184V122.755H275.429C275.654 122.755 275.837 122.572 275.837 122.347V111.02C275.837 110.912 275.794 110.808 275.717 110.732L272.554 107.569C272.477 107.492 272.374 107.449 272.265 107.449H268.898V105.816H279.102V109.49C279.102 109.715 279.285 109.898 279.51 109.898H283.184V124.184H268.898Z" fill="#747987"/>
<path d="M281.958 111.53H276.652V112.347H281.958V111.53Z" fill="#747987"/>
<path d="M281.958 113.979H276.652V114.796H281.958V113.979Z" fill="#747987"/>
<path d="M281.958 116.429H276.652V117.245H281.958V116.429Z" fill="#747987"/>
<path d="M281.958 118.878H276.652V119.694H281.958V118.878Z" fill="#747987"/>
<path d="M281.958 121.326H276.652V122.142H281.958V121.326Z" fill="#747987"/>
<path d="M268.489 109.286H265.836V110.102H268.489V109.286Z" fill="#747987"/>
<path d="M268.489 110.918H265.836V111.734H268.489V110.918Z" fill="#747987"/>
<path d="M273.999 113.367H265.836V114.184H273.999V113.367Z" fill="#747987"/>
<path d="M273.999 115.408H265.836V116.225H273.999V115.408Z" fill="#747987"/>
<path d="M273.999 117.449H265.836V118.266H273.999V117.449Z" fill="#747987"/>
<path d="M273.999 119.49H265.836V120.307H273.999V119.49Z" fill="#747987"/>
<path d="M316.421 37.435C316.522 37.3341 316.607 37.2231 316.681 37.1074L324.433 29.3454C325.189 28.5878 325.189 27.3597 324.433 26.6018C323.676 25.845 322.45 25.8442 321.693 26.6018L315.017 33.2866L308.306 26.568C307.55 25.8108 306.324 25.8105 305.567 26.568C305.189 26.9474 304.999 27.4434 305 27.9395C304.999 28.4359 305.189 28.9323 305.568 29.3102L313.353 37.107C313.427 37.2231 313.513 37.3337 313.615 37.435C314.001 37.8222 314.51 38.0086 315.017 37.9997C315.524 38.009 316.034 37.8222 316.421 37.435Z" fill="#3A95FF"/>
<path d="M316.421 120.435C316.522 120.334 316.607 120.223 316.681 120.107L324.433 112.345C325.189 111.588 325.189 110.36 324.433 109.602C323.676 108.845 322.45 108.844 321.693 109.602L315.017 116.287L308.306 109.568C307.55 108.811 306.324 108.81 305.567 109.568C305.189 109.947 304.999 110.443 305 110.939C304.999 111.436 305.189 111.932 305.568 112.31L313.353 120.107C313.427 120.223 313.513 120.334 313.615 120.435C314.001 120.822 314.51 121.009 315.017 121C315.524 121.009 316.034 120.822 316.421 120.435Z" fill="#747987"/>
<path d="M113.752 31.0195C113.477 31.0195 113.254 31.2558 113.254 31.5471V36.4219C113.254 36.7131 113.477 36.9495 113.752 36.9495C114.027 36.9495 114.25 36.7131 114.25 36.4219V31.5471C114.25 31.2557 114.027 31.0195 113.752 31.0195Z" fill="#3A95FF"/>
<path d="M102.241 31.0195C101.965 31.0195 101.742 31.2558 101.742 31.5471V36.4219C101.742 36.7131 101.965 36.9495 102.241 36.9495C102.516 36.9495 102.739 36.7131 102.739 36.4219V31.5471C102.739 31.2557 102.516 31.0195 102.241 31.0195Z" fill="#3A95FF"/>
<path d="M106.289 31.2238H105.337C105.389 31.1665 105.444 31.1073 105.5 31.0464C105.938 30.572 106.435 30.0341 106.435 29.4131C106.435 28.7777 105.947 28.2607 105.346 28.2607C104.746 28.2607 104.258 28.7777 104.258 29.4131C104.258 29.6362 104.429 29.8181 104.64 29.8181C104.851 29.8181 105.022 29.6362 105.022 29.4131C105.022 29.2238 105.168 29.0701 105.346 29.0701C105.525 29.0701 105.671 29.2239 105.671 29.4131C105.671 29.7044 105.256 30.153 104.953 30.4809C104.565 30.9012 104.258 31.2334 104.258 31.6283C104.258 31.8514 104.429 32.0329 104.64 32.0329H106.289C106.5 32.0329 106.671 31.8514 106.671 31.6283C106.672 31.4052 106.5 31.2238 106.289 31.2238Z" fill="#3A95FF"/>
<path d="M108.559 30.3109V30.1466C108.559 29.9323 108.394 29.7577 108.192 29.7577C107.99 29.7577 107.825 29.9323 107.825 30.1466V30.3099H107.609L108.058 28.7564C108.117 28.5515 108.007 28.3336 107.814 28.271C107.779 28.2598 107.743 28.2539 107.706 28.2539C107.544 28.2539 107.403 28.3647 107.355 28.5293L106.762 30.5849C106.728 30.7023 106.749 30.8309 106.818 30.9298C106.887 31.0283 106.997 31.0872 107.113 31.0872H107.825V31.6438C107.825 31.8584 107.99 32.0326 108.192 32.0326C108.394 32.0326 108.559 31.8584 108.559 31.6438V31.0863C108.75 31.0724 108.901 30.9037 108.901 30.6985C108.901 30.4934 108.75 30.3248 108.559 30.3109Z" fill="#3A95FF"/>
<path d="M110.598 29.6632C110.518 29.6632 110.44 29.6717 110.364 29.6884V28.6615C110.364 28.4364 110.191 28.2539 109.979 28.2539C109.766 28.2539 109.594 28.4364 109.594 28.6615V31.6182C109.594 31.8436 109.766 32.026 109.979 32.026C110.191 32.026 110.364 31.8436 110.364 31.6182V30.5647C110.43 30.509 110.512 30.4786 110.598 30.4786C110.806 30.4786 110.976 30.6581 110.976 30.8786V31.6182C110.976 31.8436 111.148 32.026 111.361 32.026C111.574 32.026 111.746 31.8436 111.746 31.6182V30.8786C111.746 30.2087 111.231 29.6632 110.598 29.6632Z" fill="#3A95FF"/>
<path d="M116.889 31.289C116.859 28.8212 115.938 26.5054 114.286 24.7565C112.607 22.9789 110.375 22 108 22C105.625 22 103.393 22.9789 101.714 24.7565C100.061 26.5054 99.1407 28.8211 99.1109 31.2891C98.4411 31.7702 98 32.583 98 33.5025V34.4664C98 35.9401 99.1327 37.1391 100.525 37.1391C100.899 37.1391 101.202 36.818 101.202 36.4218V31.547C101.202 31.1508 100.899 30.8298 100.525 30.8298C100.457 30.8298 100.391 30.8333 100.325 30.8388C100.464 28.7263 101.367 26.8336 102.744 25.4685C102.775 25.6136 102.829 25.7556 102.908 25.8885C103.28 26.5083 104.055 26.6919 104.641 26.2986C105.639 25.6283 106.8 25.2739 108 25.2739C109.2 25.2739 110.361 25.6283 111.359 26.2986C111.944 26.6919 112.72 26.5083 113.091 25.8885C113.171 25.7556 113.225 25.6136 113.256 25.4685C114.633 26.8336 115.536 28.7263 115.675 30.8388C115.609 30.8333 115.543 30.8298 115.475 30.8298C115.101 30.8298 114.798 31.1508 114.798 31.547V36.4218C114.798 36.7171 114.966 36.9705 115.207 37.0803C115.12 37.3525 115.019 37.6127 114.899 37.8574C114.317 39.0453 113.375 39.7674 111.988 40.0688C111.794 39.7063 111.427 39.4616 111.006 39.4616H109.117C108.494 39.4616 107.989 39.996 107.989 40.6553V40.8066C107.989 41.4657 108.494 42 109.117 42H111.006C111.445 42 111.825 41.7344 112.011 41.3471C112.73 41.211 113.369 40.9842 113.92 40.6662C114.799 40.16 115.485 39.4109 115.961 38.4395C116.194 37.9622 116.37 37.446 116.501 36.9078C117.383 36.4907 118 35.5535 118 34.4663V33.5025C118 32.583 117.559 31.7702 116.889 31.289Z" fill="#3A95FF"/>
<path d="M115.752 114.02C115.477 114.02 115.254 114.256 115.254 114.547V119.422C115.254 119.713 115.477 119.949 115.752 119.949C116.027 119.949 116.25 119.713 116.25 119.422V114.547C116.25 114.256 116.027 114.02 115.752 114.02Z" fill="#747987"/>
<path d="M104.241 114.02C103.965 114.02 103.742 114.256 103.742 114.547V119.422C103.742 119.713 103.965 119.949 104.241 119.949C104.516 119.949 104.739 119.713 104.739 119.422V114.547C104.739 114.256 104.516 114.02 104.241 114.02Z" fill="#747987"/>
<path d="M108.289 114.224H107.337C107.389 114.166 107.444 114.107 107.5 114.046C107.938 113.572 108.435 113.034 108.435 112.413C108.435 111.778 107.947 111.261 107.346 111.261C106.746 111.261 106.258 111.778 106.258 112.413C106.258 112.636 106.429 112.818 106.64 112.818C106.851 112.818 107.022 112.636 107.022 112.413C107.022 112.224 107.168 112.07 107.346 112.07C107.525 112.07 107.671 112.224 107.671 112.413C107.671 112.704 107.256 113.153 106.953 113.481C106.565 113.901 106.258 114.233 106.258 114.628C106.258 114.851 106.429 115.033 106.64 115.033H108.289C108.5 115.033 108.671 114.851 108.671 114.628C108.672 114.405 108.5 114.224 108.289 114.224Z" fill="#747987"/>
<path d="M110.559 113.311V113.147C110.559 112.932 110.394 112.758 110.192 112.758C109.99 112.758 109.825 112.932 109.825 113.147V113.31H109.609L110.058 111.756C110.117 111.551 110.007 111.334 109.814 111.271C109.779 111.26 109.743 111.254 109.706 111.254C109.544 111.254 109.403 111.365 109.355 111.529L108.762 113.585C108.728 113.702 108.749 113.831 108.818 113.93C108.887 114.028 108.997 114.087 109.113 114.087H109.825V114.644C109.825 114.858 109.99 115.033 110.192 115.033C110.394 115.033 110.559 114.858 110.559 114.644V114.086C110.75 114.072 110.901 113.904 110.901 113.699C110.901 113.493 110.75 113.325 110.559 113.311Z" fill="#747987"/>
<path d="M112.598 112.663C112.518 112.663 112.44 112.672 112.364 112.688V111.661C112.364 111.436 112.191 111.254 111.979 111.254C111.766 111.254 111.594 111.436 111.594 111.661V114.618C111.594 114.844 111.766 115.026 111.979 115.026C112.191 115.026 112.364 114.844 112.364 114.618V113.565C112.43 113.509 112.512 113.479 112.598 113.479C112.806 113.479 112.976 113.658 112.976 113.879V114.618C112.976 114.844 113.148 115.026 113.361 115.026C113.574 115.026 113.746 114.844 113.746 114.618V113.879C113.746 113.209 113.231 112.663 112.598 112.663Z" fill="#747987"/>
<path d="M118.889 114.289C118.859 111.821 117.938 109.505 116.286 107.756C114.607 105.979 112.375 105 110 105C107.625 105 105.393 105.979 103.714 107.756C102.061 109.505 101.141 111.821 101.111 114.289C100.441 114.77 100 115.583 100 116.503V117.466C100 118.94 101.133 120.139 102.525 120.139C102.899 120.139 103.202 119.818 103.202 119.422V114.547C103.202 114.151 102.899 113.83 102.525 113.83C102.457 113.83 102.391 113.833 102.325 113.839C102.464 111.726 103.367 109.834 104.744 108.469C104.775 108.614 104.829 108.756 104.908 108.888C105.28 109.508 106.055 109.692 106.641 109.299C107.639 108.628 108.8 108.274 110 108.274C111.2 108.274 112.361 108.628 113.359 109.299C113.944 109.692 114.72 109.508 115.091 108.888C115.171 108.756 115.225 108.614 115.256 108.469C116.633 109.834 117.536 111.726 117.675 113.839C117.609 113.833 117.543 113.83 117.475 113.83C117.101 113.83 116.798 114.151 116.798 114.547V119.422C116.798 119.717 116.966 119.97 117.207 120.08C117.12 120.352 117.019 120.613 116.899 120.857C116.317 122.045 115.375 122.767 113.988 123.069C113.794 122.706 113.427 122.462 113.006 122.462H111.117C110.494 122.462 109.989 122.996 109.989 123.655V123.807C109.989 124.466 110.494 125 111.117 125H113.006C113.445 125 113.825 124.734 114.011 124.347C114.73 124.211 115.369 123.984 115.92 123.666C116.799 123.16 117.485 122.411 117.961 121.44C118.194 120.962 118.37 120.446 118.501 119.908C119.383 119.491 120 118.554 120 117.466V116.502C120 115.583 119.559 114.77 118.889 114.289Z" fill="#747987"/>
<path d="M428.659 22H439.344V23.8104H443V26.4953C443 28.4242 441.36 29.9935 439.344 29.9935H439.28C438.943 32.0899 437.273 33.7613 435.129 34.2027V37.1001H436.44C436.846 37.1001 437.17 37.4148 437.17 37.7989V38.7184H438.289V42H429.709V38.7184H430.828V37.7989C430.828 37.4107 431.157 37.1001 431.559 37.1001H432.87V34.2027C430.722 33.7613 429.056 32.0858 428.719 29.9935H428.655C426.639 29.9935 424.999 28.4242 424.999 26.4953V23.8104H428.655V22H428.659ZM439.344 28.2239C440.339 28.2239 441.151 27.4475 441.151 26.4953V25.5799H439.344V28.2239ZM431.576 26.9734L432.673 27.8602L432.332 29.1966C432.268 29.4459 432.554 29.6461 432.784 29.5112L434.002 28.7838L435.223 29.5072C435.454 29.642 435.74 29.4459 435.676 29.1925L435.334 27.8562L436.427 26.9734C436.632 26.8059 436.526 26.483 436.256 26.4667L434.826 26.3686L434.279 25.0936C434.177 24.8525 433.822 24.8525 433.72 25.0936L433.177 26.3645L431.747 26.4626C431.478 26.483 431.371 26.8059 431.576 26.9734ZM426.857 25.5799V26.4953C426.857 27.4475 427.664 28.2239 428.659 28.2239V25.5799H426.857Z" fill="#F3921E"/>
<path d="M428.659 54H439.344V55.8104H443V58.4953C443 60.4242 441.36 61.9935 439.344 61.9935H439.28C438.943 64.0899 437.273 65.7613 435.129 66.2027V69.1001H436.44C436.846 69.1001 437.17 69.4148 437.17 69.7989V70.7184H438.289V74H429.709V70.7184H430.828V69.7989C430.828 69.4107 431.157 69.1001 431.559 69.1001H432.87V66.2027C430.722 65.7613 429.056 64.0858 428.719 61.9935H428.655C426.639 61.9935 424.999 60.4242 424.999 58.4953V55.8104H428.655V54H428.659ZM439.344 60.2239C440.339 60.2239 441.151 59.4475 441.151 58.4953V57.5799H439.344V60.2239ZM431.576 58.9734L432.673 59.8602L432.332 61.1966C432.268 61.4459 432.554 61.6461 432.784 61.5112L434.002 60.7838L435.223 61.5072C435.454 61.642 435.74 61.4459 435.676 61.1925L435.334 59.8562L436.427 58.9734C436.632 58.8059 436.526 58.483 436.256 58.4667L434.826 58.3686L434.279 57.0936C434.177 56.8525 433.822 56.8525 433.72 57.0936L433.177 58.3645L431.747 58.4626C431.478 58.483 431.371 58.8059 431.576 58.9734ZM426.857 57.5799V58.4953C426.857 59.4475 427.664 60.2239 428.659 60.2239V57.5799H426.857Z" fill="#FCF6FE"/>
<path d="M318.421 190.435C318.522 190.334 318.607 190.223 318.681 190.107L326.433 182.345C327.189 181.588 327.189 180.36 326.433 179.602C325.676 178.845 324.45 178.844 323.693 179.602L317.017 186.287L310.306 179.568C309.55 178.811 308.324 178.81 307.567 179.568C307.189 179.947 306.999 180.443 307 180.939C306.999 181.436 307.189 181.932 307.568 182.31L315.353 190.107C315.427 190.223 315.513 190.334 315.615 190.435C316.001 190.822 316.51 191.009 317.017 191C317.524 191.009 318.034 190.822 318.421 190.435Z" fill="white"/>
<path d="M469.754 183C470.31 182.988 470.844 182.801 471.261 182.47C471.678 182.14 471.951 181.688 472.032 181.194H467.387C467.47 181.701 467.756 182.164 468.192 182.496C468.627 182.828 469.182 183.007 469.754 183Z" fill="#3B414A"/>
<path d="M478.421 179.313L478.222 179.127C477.658 178.596 477.164 177.985 476.755 177.314C476.307 176.387 476.039 175.375 475.965 174.337V171.279C475.963 170.907 475.932 170.537 475.872 170.171C474.882 169.955 473.992 169.384 473.354 168.554C472.716 167.724 472.368 166.686 472.37 165.615C472.37 165.485 472.37 165.355 472.37 165.225C471.76 164.907 471.104 164.698 470.429 164.606V163.826C470.429 163.607 470.347 163.397 470.201 163.242C470.054 163.087 469.856 163 469.649 163C469.442 163 469.243 163.087 469.097 163.242C468.951 163.397 468.869 163.607 468.869 163.826V164.637C467.358 164.863 465.975 165.66 464.976 166.88C463.977 168.101 463.428 169.663 463.432 171.279V174.337C463.359 175.375 463.09 176.387 462.643 177.314C462.24 177.984 461.754 178.594 461.199 179.127L461 179.313V181.059H478.421V179.313Z" fill="#3B414A"/>
<path d="M476.095 169.155C477.698 169.155 478.998 167.808 478.998 166.146C478.998 164.483 477.698 163.136 476.095 163.136C474.491 163.136 473.191 164.483 473.191 166.146C473.191 167.808 474.491 169.155 476.095 169.155Z" fill="#C8292A"/>
<path d="M441.376 181.618L439.972 177.405C440.711 176.116 441.101 174.651 441.101 173.159C441.101 168.444 437.266 164.608 432.551 164.608C427.836 164.608 424 168.444 424 173.159C424 177.874 427.836 181.71 432.551 181.71C433.896 181.71 435.234 181.389 436.428 180.78L441.028 181.99C441.052 181.997 441.077 182 441.101 182C441.18 182 441.257 181.968 441.313 181.908C441.386 181.83 441.41 181.719 441.376 181.618ZM428.638 174.463C427.998 174.463 427.478 173.943 427.478 173.304C427.478 172.665 427.998 172.145 428.638 172.145C429.277 172.145 429.797 172.665 429.797 173.304C429.797 173.943 429.277 174.463 428.638 174.463ZM432.406 174.463C431.766 174.463 431.246 173.943 431.246 173.304C431.246 172.665 431.766 172.145 432.406 172.145C433.045 172.145 433.565 172.665 433.565 173.304C433.565 173.943 433.045 174.463 432.406 174.463ZM436.174 174.463C435.535 174.463 435.015 173.943 435.015 173.304C435.015 172.665 435.535 172.145 436.174 172.145C436.813 172.145 437.333 172.665 437.333 173.304C437.333 173.943 436.813 174.463 436.174 174.463Z" fill="#3B414A"/>
<path d="M441.39 167.217C442.831 167.217 443.999 166.049 443.999 164.609C443.999 163.168 442.831 162 441.39 162C439.949 162 438.781 163.168 438.781 164.609C438.781 166.049 439.949 167.217 441.39 167.217Z" fill="#C8292A"/>
<path d="M437 109C431.478 109 427 113.478 427 119C427 124.522 431.478 129 437 129C442.522 129 447 124.522 447 119C447 113.478 442.522 109 437 109ZM442 119.833H437.833V124C437.833 124.461 437.46 124.833 437 124.833C436.54 124.833 436.167 124.461 436.167 124V119.833H432C431.54 119.833 431.167 119.461 431.167 119C431.167 118.539 431.54 118.167 432 118.167H436.167V114C436.167 113.539 436.54 113.167 437 113.167C437.46 113.167 437.833 113.539 437.833 114V118.167H442C442.46 118.167 442.833 118.539 442.833 119C442.833 119.461 442.46 119.833 442 119.833Z" fill="white"/>
<path d="M462.5 219C462.5 213.762 466.762 209.5 472 209.5C477.238 209.5 481.5 213.762 481.5 219C481.5 224.238 477.238 228.5 472 228.5C466.762 228.5 462.5 224.238 462.5 219ZM467.714 224.143H476.286C476.956 224.143 477.5 223.599 477.5 222.929C477.5 222.258 476.956 221.714 476.286 221.714H467.714C467.044 221.714 466.5 222.258 466.5 222.929C466.5 223.599 467.044 224.143 467.714 224.143ZM467.714 220.214H476.286C476.956 220.214 477.5 219.67 477.5 219C477.5 218.33 476.956 217.786 476.286 217.786H467.714C467.044 217.786 466.5 218.33 466.5 219C466.5 219.67 467.044 220.214 467.714 220.214ZM467.714 216.286H476.286C476.956 216.286 477.5 215.742 477.5 215.071C477.5 214.401 476.956 213.857 476.286 213.857H467.714C467.044 213.857 466.5 214.401 466.5 215.071C466.5 215.742 467.044 216.286 467.714 216.286Z" stroke="white"/>
<path d="M481.936 22.131L481.935 22.1314C481.915 22.1391 481.896 22.1508 481.881 22.1655L481.936 22.131ZM481.936 22.131C481.999 22.107 482.07 22.1239 482.117 22.1727L482.117 22.1727L489.446 29.7521L489.446 29.7521L489.452 29.7584L489.456 29.7626L481.936 22.131ZM474.556 29.2487L481.881 22.1656L489.456 29.7626C489.52 29.831 489.518 29.9364 489.452 29.9981C489.386 30.0598 489.281 30.0545 489.217 29.9861L489.217 29.9861L489.211 29.9798L483.019 23.5766L482.166 22.6943V23.9015V40.9587C482.166 41.0508 482.091 41.1229 481.999 41.1198C481.907 41.1167 481.833 41.0396 481.833 40.9476V40.9475V23.8903V22.6832L480.98 23.5081L474.792 29.4922C474.727 29.5504 474.626 29.5464 474.562 29.4825L474.562 29.4825C474.497 29.417 474.494 29.3129 474.556 29.2487Z" stroke="#2F8EE4"/>
<path d="M481.936 68.131L481.935 68.1314C481.915 68.1391 481.896 68.1508 481.881 68.1655L481.936 68.131ZM481.936 68.131C481.999 68.107 482.07 68.1239 482.117 68.1727L482.117 68.1727L489.446 75.7521L489.446 75.7521L489.452 75.7584L489.456 75.7626L481.936 68.131ZM474.556 75.2487L481.881 68.1656L489.456 75.7626C489.52 75.831 489.518 75.9364 489.452 75.9981C489.386 76.0598 489.281 76.0545 489.217 75.9861L489.217 75.9861L489.211 75.9798L483.019 69.5766L482.166 68.6943V69.9015V86.9587C482.166 87.0508 482.091 87.1229 481.999 87.1198C481.907 87.1167 481.833 87.0396 481.833 86.9476V86.9475V69.8903V68.6832L480.98 69.5081L474.792 75.4922C474.727 75.5504 474.626 75.5464 474.562 75.4825L474.562 75.4825C474.497 75.417 474.494 75.3129 474.556 75.2487Z" stroke="#878787"/>
<path d="M482.064 133.869L482.065 133.869C482.085 133.861 482.104 133.849 482.119 133.835L482.064 133.869ZM482.064 133.869C482.001 133.893 481.93 133.876 481.883 133.827L481.883 133.827L474.554 126.248L474.554 126.248L474.548 126.242L474.544 126.237L482.064 133.869ZM489.444 126.751L482.119 133.834L474.544 126.237C474.48 126.169 474.482 126.064 474.548 126.002C474.614 125.94 474.719 125.946 474.783 126.014L474.783 126.014L474.789 126.02L480.981 132.423L481.834 133.306V132.099V115.041C481.834 114.949 481.909 114.877 482.001 114.88C482.093 114.883 482.167 114.96 482.167 115.052V115.052V132.11V133.317L483.02 132.492L489.208 126.508C489.273 126.45 489.374 126.454 489.438 126.518L489.438 126.518C489.503 126.583 489.506 126.687 489.444 126.751Z" stroke="white"/>
<path d="M447 199H433.997C433.078 199 432.33 199.748 432.33 200.667V214.331L430.003 214.33C429.45 214.33 429 214.78 429 215.333V217C429 218.103 429.897 219 431 219H443.667C443.669 219 443.671 218.999 443.673 218.999C444.167 218.996 444.646 218.813 445.012 218.48C445.428 218.102 445.667 217.562 445.667 217V203.67H447.997C448.55 203.67 449 203.22 449 202.667V201C449 199.897 448.103 199 447 199ZM437 201H441C441.184 201 441.333 201.149 441.333 201.333C441.333 201.518 441.184 201.667 441 201.667H437C436.816 201.667 436.667 201.518 436.667 201.333C436.667 201.149 436.816 201 437 201ZM434.667 203H443.333C443.517 203 443.667 203.149 443.667 203.333C443.667 203.518 443.517 203.667 443.333 203.667H434.667C434.483 203.667 434.333 203.518 434.333 203.333C434.333 203.149 434.483 203 434.667 203ZM434.667 205H443.333C443.517 205 443.667 205.149 443.667 205.333C443.667 205.518 443.517 205.667 443.333 205.667H434.667C434.483 205.667 434.333 205.518 434.333 205.333C434.333 205.149 434.483 205 434.667 205ZM431 218.333C430.265 218.333 429.667 217.735 429.667 217V215.333C429.667 215.148 429.818 214.997 430.003 214.997L441.667 215V216.928V217C441.667 217.024 441.672 217.047 441.673 217.07C441.676 217.108 441.679 217.145 441.684 217.182C441.724 217.621 441.898 218.022 442.177 218.333H431V218.333ZM440.667 213.667C439.245 213.667 438.013 212.852 437.405 211.667H434.667C434.483 211.667 434.333 211.518 434.333 211.333C434.333 211.149 434.483 211 434.667 211H437.142C437.052 210.682 437 210.347 437 210C437 209.887 437.007 209.777 437.017 209.667H434.667C434.483 209.667 434.333 209.518 434.333 209.333C434.333 209.149 434.483 209 434.667 209H437.142C437.283 208.506 437.521 208.053 437.84 207.667H434.667C434.483 207.667 434.333 207.518 434.333 207.333C434.333 207.149 434.483 207 434.667 207H438.565C439.161 206.581 439.885 206.333 440.667 206.333C442.688 206.333 444.333 207.978 444.333 210C444.333 212.022 442.688 213.667 440.667 213.667ZM448.333 202.667C448.333 202.852 448.182 203.003 447.997 203.003H445.667V201C445.667 200.265 446.265 199.667 447 199.667C447.735 199.667 448.333 200.265 448.333 201V202.667H448.333Z" fill="white"/>
<path d="M440.664 207C439.01 207 437.664 208.346 437.664 210C437.664 211.654 439.01 213 440.664 213C442.318 213 443.664 211.654 443.664 210C443.664 208.346 442.318 207 440.664 207ZM442.608 208.852L440.608 211.852C440.553 211.935 440.463 211.989 440.364 211.998C440.352 211.999 440.342 212 440.331 212C440.243 212 440.158 211.965 440.095 211.902L438.762 210.569C438.631 210.439 438.631 210.228 438.762 210.098C438.892 209.968 439.103 209.968 439.233 210.098L440.279 211.144L442.053 208.482C442.156 208.329 442.362 208.287 442.516 208.389C442.669 208.492 442.71 208.698 442.608 208.852Z" fill="white"/>
<path d="M448.999 268.883C448.998 268.868 448.997 268.853 448.996 268.838C448.994 268.808 448.992 268.778 448.989 268.748C448.988 268.731 448.986 268.714 448.984 268.697C448.981 268.67 448.977 268.642 448.973 268.615C448.971 268.598 448.968 268.58 448.965 268.562C448.961 268.536 448.956 268.51 448.951 268.483C448.948 268.466 448.944 268.449 448.941 268.431C448.935 268.405 448.929 268.378 448.922 268.352C448.918 268.335 448.915 268.319 448.911 268.303C448.902 268.273 448.894 268.242 448.885 268.212C448.881 268.201 448.878 268.189 448.875 268.178C448.862 268.138 448.849 268.098 448.834 268.059C448.829 268.043 448.822 268.027 448.816 268.011C448.807 267.987 448.798 267.963 448.788 267.94C448.78 267.921 448.772 267.903 448.764 267.885C448.755 267.864 448.746 267.844 448.737 267.824C448.728 267.805 448.718 267.786 448.709 267.767C448.7 267.748 448.69 267.729 448.68 267.711C448.67 267.691 448.66 267.672 448.649 267.653C448.64 267.636 448.63 267.619 448.62 267.602C448.608 267.582 448.597 267.562 448.585 267.543C448.576 267.528 448.566 267.514 448.557 267.499C448.506 267.42 448.451 267.344 448.393 267.27C448.387 267.262 448.381 267.254 448.374 267.246C448.356 267.224 448.337 267.202 448.318 267.18C448.31 267.171 448.303 267.162 448.295 267.153C448.275 267.131 448.256 267.11 448.236 267.089C448.228 267.08 448.22 267.072 448.212 267.063C448.191 267.042 448.17 267.021 448.149 267C448.142 266.993 448.135 266.987 448.128 266.98C448.105 266.958 448.081 266.936 448.057 266.915C448.055 266.913 448.052 266.91 448.049 266.908C447.907 266.782 447.752 266.671 447.587 266.576C447.584 266.575 447.582 266.573 447.579 266.572C447.547 266.554 447.514 266.536 447.481 266.519C447.48 266.518 447.478 266.517 447.476 266.516C447.268 266.409 447.045 266.327 446.812 266.275C446.612 266.23 446.405 266.205 446.191 266.205C445.248 266.205 444.413 266.67 443.904 267.383C443.394 266.67 442.559 266.205 441.616 266.205C440.063 266.205 438.805 267.465 438.805 269.018C438.805 269.693 439.043 270.313 439.439 270.798L443.904 276.249L443.936 276.21L448.368 270.798C448.765 270.313 449.002 269.694 449.002 269.018C449.002 268.973 449.001 268.928 448.999 268.883Z" fill="white"/>
<path d="M438.418 271.629C437.817 270.894 437.485 269.965 437.485 269.013C437.485 266.735 439.338 264.881 441.616 264.881C442.439 264.881 443.234 265.129 443.904 265.574C444.574 265.129 445.369 264.881 446.193 264.881C446.205 264.881 446.218 264.881 446.231 264.881C445.645 263.886 444.744 263.066 443.596 262.59C441.919 261.895 440.096 262.09 438.65 262.958V260H437.331V262.948C435.889 262.089 434.073 261.897 432.403 262.59C429.591 263.756 428.256 266.984 429.421 269.8L432.802 277.995C433.488 279.651 435.385 280.438 437.039 279.752C437.404 279.601 437.726 279.391 437.999 279.138C438.273 279.391 438.595 279.601 438.96 279.752C440.614 280.438 442.511 279.651 443.196 277.995L443.344 277.638L442.885 277.078L438.418 271.629Z" fill="white"/>
<path d="M439 321C433.486 321 429 325.486 429 331C429 336.514 433.486 341 439 341C444.514 341 449 336.514 449 331C449 325.486 444.514 321 439 321ZM439 339.447C434.343 339.447 430.553 335.657 430.553 331C430.553 326.343 434.343 322.553 439 322.553C443.657 322.553 447.447 326.343 447.447 331C447.447 335.657 443.657 339.447 439 339.447Z" fill="white"/>
<path d="M438.999 324.884C435.627 324.884 432.883 327.628 432.883 331C432.883 334.373 435.627 337.117 438.999 337.117C440.138 337.117 441.204 336.804 442.118 336.26L441.69 335.816C441.643 335.925 441.577 336.021 441.491 336.104C441.325 336.264 441.106 336.352 440.875 336.352C440.514 336.351 440.193 336.136 440.056 335.804L439.918 335.47C439.621 335.531 439.314 335.563 438.999 335.563C436.483 335.563 434.436 333.516 434.436 331C434.436 328.484 436.483 326.437 438.999 326.437C441.515 326.437 443.562 328.484 443.562 331C443.562 331.359 443.521 331.709 443.442 332.044L443.788 332.202C444.116 332.351 444.319 332.679 444.307 333.039C444.296 333.394 444.074 333.707 443.743 333.836L444.164 334.273C444.767 333.326 445.116 332.203 445.116 331C445.116 327.628 442.372 324.884 438.999 324.884Z" fill="white"/>
<path d="M439.041 330.129C439.169 330.129 439.292 330.156 439.408 330.208L440.84 330.859C440.768 329.906 439.972 329.155 439.001 329.155C437.982 329.155 437.156 329.981 437.156 331C437.156 331.962 437.893 332.752 438.833 332.837L438.222 331.354C438.082 331.015 438.162 330.632 438.426 330.377C438.591 330.217 438.81 330.129 439.041 330.129Z" fill="white"/>
<path d="M442.515 333.546L443.541 333.158C443.601 333.135 443.642 333.078 443.644 333.014C443.646 332.95 443.609 332.891 443.551 332.865L439.17 330.872C439.11 330.845 439.041 330.857 438.994 330.902C438.947 330.947 438.932 331.016 438.957 331.077L440.793 335.526C440.817 335.585 440.875 335.624 440.939 335.624C440.981 335.624 441.021 335.608 441.05 335.58C441.065 335.565 441.077 335.547 441.086 335.527L441.51 334.515L443.087 336.149C443.147 336.212 443.248 336.213 443.311 336.153L444.087 335.403C444.15 335.342 444.152 335.242 444.091 335.179L442.515 333.546Z" fill="white"/>
<rect x="0.5" y="0.5" width="503" height="386" rx="4.5" stroke="#9747FF" stroke-dasharray="10 5"/>
</svg>
